<?xml version="1.0" standalone="no"?>
<!DOCTYPE svg PUBLIC "-//W3C//DTD SVG 20010904//EN"
 "http://www.w3.org/TR/2001/REC-SVG-20010904/DTD/svg10.dtd">
<svg version="1.0" xmlns="http://www.w3.org/2000/svg"
 width="1357.000000pt" height="1357.000000pt" viewBox="0 0 1357.000000 1357.000000"
 preserveAspectRatio="xMidYMid meet">

<g transform="translate(0.000000,1357.000000) scale(0.100000,-0.100000)"
fill="#000000" stroke="none">
<path d="M6668 11288 c-267 -312 -586 -679 -591 -681 -2 -1 -59 59 -126 133
-67 74 -126 135 -131 135 -4 0 -59 -59 -122 -131 -167 -194 -479 -550 -614
-703 -108 -122 -132 -143 -261 -230 -79 -53 -143 -99 -143 -103 0 -3 59 -55
131 -115 72 -59 197 -163 277 -230 80 -68 152 -123 162 -123 16 0 155 84 1100
665 l475 293 3 501 c1 275 6 501 10 501 4 0 20 -17 37 -38 16 -20 178 -210
360 -421 181 -211 337 -393 346 -404 16 -19 20 -15 144 122 125 137 129 141
148 123 18 -15 118 -130 403 -462 50 -58 98 -111 107 -118 14 -12 26 -7 86 35
39 26 71 51 71 55 0 8 -96 125 -148 180 -26 27 -32 39 -21 42 32 11 382 77
482 91 211 29 437 45 663 46 200 0 250 -3 396 -26 92 -14 202 -35 245 -46 524
-136 846 -419 928 -815 96 -465 -121 -1084 -615 -1748 -120 -161 -351 -435
-367 -435 -10 -1 -13 55 -13 249 0 138 -3 250 -6 250 -10 0 -48 -22 -114 -65
-59 -39 -328 -207 -565 -353 -49 -31 -200 -125 -335 -210 -135 -85 -275 -173
-312 -195 -52 -31 -67 -46 -72 -70 -10 -50 -7 -807 3 -807 6 0 81 44 168 97
371 227 456 275 464 261 10 -15 12 -648 3 -673 -4 -8 -50 -41 -103 -72 -134
-79 -231 -143 -231 -151 0 -11 62 -69 136 -128 33 -27 103 -85 156 -129 157
-132 290 -240 298 -243 5 -2 53 24 107 57 54 34 167 102 251 153 l152 92 0
834 0 835 93 96 c142 146 394 448 476 570 13 20 41 59 62 86 55 74 207 323
276 455 97 183 202 468 242 652 30 140 45 317 37 444 -28 498 -360 892 -904
1074 -226 76 -391 104 -703 121 -377 21 -796 -18 -1241 -115 l-197 -43 -170
197 c-93 107 -178 203 -188 212 -17 15 -22 11 -82 -56 -122 -136 -194 -207
-200 -198 -12 18 -242 286 -511 598 -86 98 -173 200 -194 227 -21 26 -42 47
-45 47 -4 0 -82 -87 -173 -192z"/>
<path d="M9230 10188 c-149 -102 -505 -344 -795 -540 l-110 -75 -22 -89 c-12
-49 -29 -129 -36 -177 l-14 -88 32 -94 33 -93 -87 -58 c-47 -33 -91 -70 -98
-84 -8 -16 -13 -69 -13 -144 l0 -120 49 -80 c26 -45 85 -141 130 -214 44 -74
81 -137 82 -140 0 -4 17 -32 37 -62 28 -41 52 -63 97 -87 71 -39 183 -83 209
-83 10 0 61 27 114 61 l97 61 60 -66 60 -66 168 -60 c92 -33 173 -60 180 -60
17 0 970 639 1055 708 24 19 48 46 54 61 47 119 168 502 168 532 0 36 -50 168
-174 463 -25 60 -65 135 -88 165 -37 49 -275 334 -361 432 l-32 36 -155 17
c-85 10 -193 24 -240 32 -47 7 -119 16 -160 19 l-75 5 -165 -112z m440 -73
c107 -14 212 -30 234 -35 44 -10 41 -6 229 -230 67 -80 133 -158 147 -173 33
-35 90 -149 140 -277 80 -203 100 -257 100 -271 0 -9 -30 -101 -66 -205 -36
-104 -70 -203 -75 -221 -11 -35 -41 -61 -174 -149 -49 -33 -159 -107 -244
-164 -309 -211 -396 -267 -399 -258 -2 5 0 14 5 21 6 7 18 39 28 71 10 33 24
71 31 85 8 14 14 33 14 42 0 8 4 19 9 25 4 5 14 30 20 55 14 52 11 62 -55 165
-19 29 -34 57 -34 63 0 5 -4 11 -8 13 -9 3 -112 174 -112 184 0 3 -14 27 -32
52 -47 69 -62 94 -78 127 -8 17 -19 37 -26 45 -7 8 -21 31 -32 50 -10 19 -50
85 -87 145 -98 159 -103 167 -120 201 -19 36 -54 49 -172 64 -43 5 -100 14
-128 19 -27 6 -74 13 -102 16 -29 4 -53 10 -52 13 0 4 142 102 316 217 174
116 355 238 402 272 47 34 95 63 106 63 11 0 108 -11 215 -25z m-1160 -696 c0
-6 -9 -9 -20 -6 -16 4 -20 0 -20 -21 1 -25 2 -25 14 -9 7 9 18 17 25 17 6 0
11 6 11 14 0 9 11 12 38 9 46 -5 350 -51 377 -58 27 -6 68 -71 60 -95 -3 -11
-1 -28 5 -37 8 -14 9 -12 3 12 -6 27 -5 29 10 16 10 -7 17 -17 17 -22 0 -9 50
-90 61 -99 3 -3 8 -10 10 -16 3 -9 169 -287 219 -369 8 -13 37 -61 64 -107 27
-46 64 -108 83 -139 33 -54 34 -57 20 -95 -8 -21 -26 -73 -41 -114 -15 -41
-31 -83 -36 -92 -6 -10 -10 -24 -10 -31 0 -7 -13 -39 -30 -72 -16 -33 -30 -66
-30 -72 0 -18 -8 -17 -107 18 -60 22 -98 42 -120 64 -18 19 -33 37 -33 42 0 4
24 23 53 40 29 18 68 46 87 62 l35 29 3 157 c4 147 -4 206 -28 225 -8 6 -78
126 -158 270 -13 25 -47 80 -74 122 -55 85 -47 80 -281 163 -84 30 -83 30
-192 -40 -38 -25 -72 -45 -76 -45 -4 0 -12 14 -19 30 -13 31 -10 73 12 198 11
59 13 62 40 62 15 0 28 -5 28 -11z m265 -380 c44 -16 83 -35 88 -42 29 -46
137 -241 137 -247 0 -5 4 -10 8 -12 4 -1 29 -37 55 -79 l47 -76 0 -104 0 -104
-37 -25 c-49 -33 -89 -58 -157 -98 -30 -18 -58 -37 -61 -43 -16 -25 -22 -1
-21 84 l1 92 -55 89 c-84 137 -97 157 -126 211 -14 28 -46 80 -70 116 -41 62
-47 67 -104 84 -34 10 -63 22 -65 25 -4 7 167 127 222 156 16 7 35 11 43 8 8
-4 51 -20 95 -35z m-412 -247 c54 -16 104 -35 111 -43 8 -8 28 -41 46 -74 19
-33 66 -117 107 -188 l73 -128 0 -119 c0 -138 4 -134 -92 -93 -76 32 -72 29
-63 42 4 8 11 6 22 -4 8 -9 18 -14 21 -11 3 3 -5 15 -18 26 -16 14 -26 17 -30
9 -4 -6 -39 40 -81 107 -80 129 -79 126 -128 211 -18 32 -37 60 -40 63 -3 3
-15 21 -25 41 -16 30 -18 47 -11 112 3 42 7 77 8 77 1 0 46 -13 100 -28z"/>
<path d="M9183 9934 c-7 -3 -9 -12 -6 -20 8 -21 22 -17 20 6 -1 11 -1 20 -2
19 0 0 -5 -3 -12 -5z"/>
<path d="M9005 9820 c-3 -6 1 -7 9 -4 18 7 21 14 7 14 -6 0 -13 -4 -16 -10z"/>
<path d="M9025 9800 c3 -5 8 -10 11 -10 2 0 4 5 4 10 0 6 -5 10 -11 10 -5 0
-7 -4 -4 -10z"/>
<path d="M10153 9770 c3 -10 0 -21 -7 -24 -6 -3 0 -4 13 -3 13 1 26 -4 29 -12
3 -8 0 -11 -7 -7 -6 4 -11 2 -11 -4 0 -14 22 -8 27 6 2 5 -5 19 -16 31 -11 11
-17 24 -14 27 4 3 1 6 -6 6 -8 0 -11 -8 -8 -20z"/>
<path d="M10210 9721 c0 -24 21 -62 31 -56 6 4 13 -2 16 -14 3 -12 9 -21 14
-21 14 0 11 5 -22 54 -31 46 -39 54 -39 37z"/>
<path d="M10233 9612 c-7 -4 -9 -13 -4 -21 6 -9 10 -7 14 8 3 12 4 21 4 21 -1
0 -7 -4 -14 -8z"/>
<path d="M10290 9603 c0 -11 7 -23 15 -27 19 -7 19 3 0 28 -15 19 -15 19 -15
-1z"/>
<path d="M9175 9360 c3 -5 8 -10 11 -10 2 0 4 5 4 10 0 6 -5 10 -11 10 -5 0
-7 -4 -4 -10z"/>
<path d="M9210 9330 c-20 -12 -10 -19 14 -10 11 3 15 9 10 13 -6 3 -16 2 -24
-3z"/>
<path d="M9260 9298 c0 -9 5 -20 10 -23 13 -8 13 5 0 25 -8 13 -10 13 -10 -2z"/>
<path d="M9220 9289 c0 -15 18 -19 23 -6 3 8 -1 14 -9 14 -8 0 -14 -4 -14 -8z"/>
<path d="M9247 9245 c3 -8 9 -12 14 -9 12 7 11 11 -5 17 -10 4 -13 1 -9 -8z"/>
<path d="M10460 9201 c0 -5 5 -13 10 -16 6 -3 10 -2 10 4 0 5 -4 13 -10 16 -5
3 -10 2 -10 -4z"/>
<path d="M10430 9163 c0 -12 5 -25 10 -28 13 -8 13 15 0 35 -8 12 -10 11 -10
-7z"/>
<path d="M10465 9155 c14 -34 18 -75 7 -75 -5 0 -10 -17 -10 -37 0 -21 3 -31
6 -23 3 8 9 26 15 40 18 46 16 78 -6 97 -20 17 -20 17 -12 -2z"/>
<path d="M9341 9106 c-8 -10 -9 -16 -1 -21 5 -3 10 -5 11 -3 4 18 7 38 4 38
-1 0 -8 -6 -14 -14z"/>
<path d="M9360 9066 c0 -8 4 -17 9 -20 5 -4 7 3 4 14 -6 23 -13 26 -13 6z"/>
<path d="M9385 9070 c-3 -5 -1 -10 4 -10 6 0 11 5 11 10 0 6 -2 10 -4 10 -3 0
-8 -4 -11 -10z"/>
<path d="M10365 8780 c-3 -5 -1 -10 4 -10 6 0 11 5 11 10 0 6 -2 10 -4 10 -3
0 -8 -4 -11 -10z"/>
<path d="M10336 8752 c-7 -12 4 -52 15 -52 4 0 7 9 6 20 -1 11 -5 20 -10 20
-4 0 -5 5 -2 10 3 6 4 10 1 10 -3 0 -7 -4 -10 -8z"/>
<path d="M10330 8679 c0 -5 5 -7 10 -4 6 3 10 8 10 11 0 2 -4 4 -10 4 -5 0
-10 -5 -10 -11z"/>
<path d="M10280 8639 c0 -5 5 -7 10 -4 6 3 10 8 10 11 0 2 -4 4 -10 4 -5 0
-10 -5 -10 -11z"/>
<path d="M9681 8554 c0 -11 3 -14 6 -6 3 7 2 16 -1 19 -3 4 -6 -2 -5 -13z"/>
<path d="M9680 8515 c0 -8 2 -15 4 -15 2 0 6 7 10 15 3 8 1 15 -4 15 -6 0 -10
-7 -10 -15z"/>
<path d="M9700 8456 c0 -9 5 -16 10 -16 6 0 10 4 10 9 0 6 -4 13 -10 16 -5 3
-10 -1 -10 -9z"/>
<path d="M9700 8385 c0 -8 4 -15 10 -15 5 0 7 7 4 15 -4 8 -8 15 -10 15 -2 0
-4 -7 -4 -15z"/>
<path d="M9875 8382 c5 -5 -25 -36 -50 -51 -19 -11 -18 -11 4 -5 14 3 34 15
45 25 11 11 23 19 28 19 4 0 8 4 8 8 0 4 -9 8 -20 8 -10 0 -17 -2 -15 -4z"/>
<path d="M9748 8303 c6 -3 10 -8 7 -12 -2 -5 7 -6 20 -3 35 6 31 17 -7 18 -18
1 -27 -1 -20 -3z"/>
<path d="M8535 9400 c3 -5 13 -10 21 -10 8 0 14 5 14 10 0 6 -9 10 -21 10 -11
0 -17 -4 -14 -10z"/>
<path d="M8585 9390 c3 -5 10 -10 16 -10 5 0 9 5 9 10 0 6 -7 10 -16 10 -8 0
-12 -4 -9 -10z"/>
<path d="M8848 9203 c7 -3 16 -2 19 1 4 3 -2 6 -13 5 -11 0 -14 -3 -6 -6z"/>
<path d="M8945 9190 c-4 -12 -5 -24 -2 -27 3 -2 8 5 12 17 4 12 5 24 2 27 -3
2 -8 -5 -12 -17z"/>
<path d="M8960 9150 c0 -5 7 -7 15 -4 8 4 15 8 15 10 0 2 -7 4 -15 4 -8 0 -15
-4 -15 -10z"/>
<path d="M9111 9045 c0 -11 4 -29 9 -40 7 -18 9 -18 15 -3 4 10 0 27 -9 40
-15 21 -16 21 -15 3z"/>
<path d="M9067 9033 c-13 -12 -7 -40 8 -40 8 0 15 5 15 11 0 17 -16 37 -23 29z"/>
<path d="M9140 8992 c0 -16 28 -47 36 -39 4 4 2 7 -4 7 -7 0 -12 9 -12 20 0
11 -4 20 -10 20 -5 0 -10 -4 -10 -8z"/>
<path d="M9080 8970 c0 -5 5 -10 11 -10 5 0 7 5 4 10 -3 6 -8 10 -11 10 -2 0
-4 -4 -4 -10z"/>
<path d="M9100 8925 c0 -8 4 -15 10 -15 5 0 7 7 4 15 -4 8 -8 15 -10 15 -2 0
-4 -7 -4 -15z"/>
<path d="M9331 8674 c0 -11 3 -14 6 -6 3 7 2 16 -1 19 -3 4 -6 -2 -5 -13z"/>
<path d="M9280 8571 c0 -12 5 -21 10 -21 6 0 10 6 10 14 0 8 -4 18 -10 21 -5
3 -10 -3 -10 -14z"/>
<path d="M9371 8564 c0 -11 3 -14 6 -6 3 7 2 16 -1 19 -3 4 -6 -2 -5 -13z"/>
<path d="M9403 8515 c-3 -9 -3 -18 -1 -21 3 -3 8 4 11 16 6 23 -1 27 -10 5z"/>
<path d="M9430 8515 c0 -8 4 -15 10 -15 5 0 7 7 4 15 -4 8 -8 15 -10 15 -2 0
-4 -7 -4 -15z"/>
<path d="M9431 8474 c0 -11 3 -14 6 -6 3 7 2 16 -1 19 -3 4 -6 -2 -5 -13z"/>
<path d="M9460 8456 c0 -9 5 -16 10 -16 6 0 10 4 10 9 0 6 -4 13 -10 16 -5 3
-10 -1 -10 -9z"/>
<path d="M9150 8180 c-9 -6 -10 -10 -3 -10 6 0 15 5 18 10 8 12 4 12 -15 0z"/>
<path d="M9320 8079 c0 -5 5 -7 10 -4 6 3 10 8 10 11 0 2 -4 4 -10 4 -5 0 -10
-5 -10 -11z"/>
<path d="M9250 8068 c0 -4 12 -8 27 -8 14 0 23 3 19 7 -10 10 -46 11 -46 1z"/>
<path d="M8530 8970 c0 -5 5 -10 10 -10 6 0 10 5 10 10 0 6 -4 10 -10 10 -5 0
-10 -4 -10 -10z"/>
<path d="M8495 8940 c4 -6 11 -8 16 -5 14 9 11 15 -7 15 -8 0 -12 -5 -9 -10z"/>
<path d="M8862 8925 c12 -14 24 -22 27 -19 3 4 0 9 -6 11 -7 3 -13 11 -13 19
0 8 -7 14 -15 14 -11 0 -10 -6 7 -25z"/>
<path d="M8462 8921 c-8 -5 9 -14 45 -24 41 -11 53 -12 41 -3 -10 7 -16 15
-13 17 2 3 -8 4 -23 3 -15 0 -29 3 -32 7 -3 4 -11 4 -18 0z"/>
<path d="M8771 8534 c0 -11 3 -14 6 -6 3 7 2 16 -1 19 -3 4 -6 -2 -5 -13z"/>
<path d="M8800 8487 c0 -14 5 -29 10 -32 7 -4 10 3 8 19 -5 35 -18 45 -18 13z"/>
<path d="M8980 8330 c0 -5 6 -10 14 -10 8 0 18 5 21 10 3 6 -3 10 -14 10 -12
0 -21 -4 -21 -10z"/>
<path d="M8861 8294 c0 -11 3 -14 6 -6 3 7 2 16 -1 19 -3 4 -6 -2 -5 -13z"/>
<path d="M8860 8255 c0 -8 2 -15 4 -15 2 0 6 7 10 15 3 8 1 15 -4 15 -6 0 -10
-7 -10 -15z"/>
<path d="M8300 8615 c0 -8 5 -15 10 -15 6 0 10 -7 10 -15 0 -8 5 -15 10 -15 6
0 4 13 -5 30 -17 33 -25 38 -25 15z"/>
<path d="M8487 8344 c-4 -4 -7 -17 -7 -28 1 -19 1 -20 11 -3 11 19 8 43 -4 31z"/>
<path d="M8520 8256 c0 -8 7 -16 15 -20 9 -3 15 0 15 8 0 8 -7 16 -15 20 -9 3
-15 0 -15 -8z"/>
<path d="M3785 10131 c-44 -32 -273 -194 -510 -359 -594 -415 -576 -402 -572
-415 2 -7 31 -34 64 -62 33 -27 127 -106 209 -175 81 -69 279 -235 439 -369
159 -134 380 -319 490 -411 110 -93 250 -210 310 -260 61 -51 175 -147 255
-214 80 -67 164 -137 187 -155 l43 -33 157 113 c87 62 187 134 222 161 35 26
67 48 71 48 14 0 190 -143 190 -154 0 -6 -37 -36 -81 -66 -45 -30 -115 -80
-155 -110 -41 -30 -101 -74 -133 -98 -68 -49 -58 -24 -140 -337 -27 -104 -65
-248 -85 -319 l-36 -129 51 -96 52 -95 -28 -85 c-38 -118 -43 -192 -17 -278
27 -88 108 -223 175 -291 83 -84 227 -142 313 -126 30 6 35 2 76 -52 97 -129
81 -120 278 -148 96 -14 270 -41 385 -61 116 -19 219 -35 229 -35 18 0 114 62
337 218 52 37 162 113 243 170 l147 103 37 -30 c20 -16 59 -52 87 -80 45 -46
48 -52 33 -67 -16 -17 -83 -65 -270 -195 -65 -45 -118 -84 -118 -88 0 -4 32
-33 71 -66 39 -33 76 -65 83 -70 39 -36 230 -200 290 -249 39 -32 71 -61 70
-65 -2 -19 -497 -243 -755 -342 -409 -155 -722 -247 -1144 -335 -567 -117
-1190 -132 -1612 -38 -549 122 -897 411 -974 809 -8 40 -13 129 -13 205 2 322
126 653 395 1057 119 177 402 531 427 532 9 1 12 -141 12 -679 0 -374 3 -680
7 -680 26 0 397 240 621 402 l122 89 0 839 c0 741 -2 840 -15 854 -9 8 -88 75
-177 148 -89 73 -249 206 -357 295 l-196 162 -3 -578 -2 -578 -114 -121 c-245
-261 -483 -577 -618 -822 -59 -106 -153 -319 -187 -420 -60 -179 -84 -325 -85
-510 -1 -174 7 -228 51 -365 141 -443 578 -735 1253 -840 342 -52 811 -45
1250 20 415 62 934 201 1335 357 325 127 509 207 792 344 73 35 135 64 139 64
10 0 272 -216 314 -260 3 -3 46 -39 95 -80 50 -41 247 -210 439 -375 192 -165
364 -313 383 -328 20 -17 38 -25 45 -21 7 5 155 110 329 234 173 124 386 275
473 335 239 168 356 254 356 263 0 9 -78 77 -419 363 -247 207 -408 343 -560
472 -46 40 -103 88 -126 107 -53 44 -421 355 -535 452 -186 158 -283 238 -290
238 -4 0 -61 -38 -126 -85 -361 -259 -341 -247 -386 -213 -18 14 -57 49 -86
78 -39 40 -50 56 -42 65 6 7 84 64 173 126 417 289 462 323 483 354 8 13 33
88 55 167 21 79 59 213 84 298 51 178 105 390 105 415 0 9 -12 37 -27 63 -31
54 -148 251 -162 271 -7 11 -20 7 -70 -19 -33 -18 -61 -36 -61 -41 0 -4 33
-66 73 -137 41 -71 77 -136 80 -146 4 -9 -40 -180 -100 -393 l-107 -376 -326
8 c-179 4 -336 8 -350 10 -14 1 -52 3 -85 4 l-60 1 -47 83 c-41 72 -145 239
-457 730 -45 70 -81 137 -81 149 0 11 48 165 106 342 58 176 112 343 121 369
8 27 22 51 31 55 22 8 792 -60 798 -72 0 0 23 -36 50 -79 27 -42 56 -88 64
-101 8 -13 30 -49 48 -80 19 -31 37 -56 41 -56 7 0 38 19 88 57 32 24 33 24
17 54 -25 50 -186 302 -206 325 -16 18 -41 24 -166 38 -297 33 -560 58 -672
65 -153 9 -96 39 -615 -334 -159 -115 -327 -235 -372 -268 -46 -32 -87 -57
-92 -55 -19 7 -162 130 -168 144 -7 18 -10 15 187 150 159 109 220 159 220
180 0 6 -129 119 -287 252 -159 132 -396 331 -528 442 -132 111 -398 334 -591
496 -194 161 -402 336 -463 388 -62 53 -113 96 -114 96 -1 0 -38 -27 -82 -59z
m2605 -1748 c0 -10 -180 -554 -188 -570 -5 -8 -134 -104 -288 -214 -324 -232
-257 -214 -540 -149 -213 49 -214 49 -214 59 0 5 107 85 238 178 398 284 762
546 871 626 98 73 121 86 121 70z m-113 -776 c15 -29 216 -354 434 -703 49
-78 89 -146 89 -150 -1 -10 -41 -40 -195 -145 -60 -42 -164 -115 -230 -162
-66 -48 -126 -85 -132 -82 -7 2 -99 25 -205 50 -106 26 -249 60 -317 76 -68
16 -127 32 -131 34 -4 2 3 69 16 147 13 79 28 179 34 223 12 90 48 319 55 351
3 13 32 39 72 65 67 44 399 279 449 318 31 24 38 21 61 -22z m-972 -282 c137
-30 251 -57 253 -60 2 -2 -5 -71 -17 -152 -44 -316 -73 -509 -76 -520 -3 -8
-105 38 -280 126 -152 77 -278 141 -280 143 -2 2 12 62 31 133 19 72 48 187
66 258 18 71 37 127 43 127 7 0 124 -25 260 -55z m-101 -756 c132 -67 244
-127 248 -133 7 -11 11 -576 4 -576 -3 0 -26 35 -52 78 -26 42 -98 158 -160
257 -189 304 -294 480 -294 491 0 9 24 -2 254 -117z m2233 72 l131 -6 -106
-75 c-58 -41 -160 -113 -226 -161 -108 -76 -499 -348 -726 -504 -86 -59 -156
-108 -191 -134 -25 -18 -26 -32 16 254 19 132 35 240 35 241 0 1 171 120 415
289 l150 104 185 -1 c102 0 244 -3 317 -7z m-2405 -403 c143 -236 162 -268
149 -268 -26 0 -124 55 -150 86 -44 49 -98 152 -115 216 -14 53 -12 138 4 138
3 0 54 -78 112 -172z m928 72 c135 -29 249 -57 254 -61 5 -5 4 -46 -3 -101
-13 -102 -23 -186 -42 -351 -12 -101 -14 -108 -33 -103 -12 3 -124 21 -251 40
-126 20 -247 39 -267 42 l-38 7 0 302 c0 166 3 304 6 307 3 4 33 -2 67 -11 34
-10 172 -42 307 -71z"/>
<path d="M6805 9060 c110 -4 229 -10 265 -13 56 -6 60 -5 25 4 -22 5 -141 11
-265 13 l-225 4 200 -8z"/>
<path d="M6470 9045 c-62 -13 -156 -52 -148 -61 4 -3 23 3 45 14 33 17 131 42
213 55 14 3 7 4 -15 4 -22 0 -65 -5 -95 -12z"/>
<path d="M6683 9033 c9 -2 23 -2 30 0 6 3 -1 5 -18 5 -16 0 -22 -2 -12 -5z"/>
<path d="M6730 9036 c0 -9 39 -13 51 -5 10 6 4 9 -18 9 -18 0 -33 -2 -33 -4z"/>
<path d="M6828 9033 c17 -2 47 -2 65 0 17 2 3 4 -33 4 -36 0 -50 -2 -32 -4z"/>
<path d="M6945 9030 c3 -5 8 -10 11 -10 2 0 4 5 4 10 0 6 -5 10 -11 10 -5 0
-7 -4 -4 -10z"/>
<path d="M7195 9025 c101 -21 140 -27 133 -19 -10 9 -134 33 -168 33 -14 -1 2
-7 35 -14z"/>
<path d="M6445 9000 c-4 -6 -10 -8 -15 -5 -4 2 -22 0 -40 -6 -23 -8 -28 -14
-19 -20 8 -5 20 -2 30 7 8 8 19 11 22 8 4 -4 12 -2 19 3 7 6 22 13 33 16 19 4
18 5 -2 6 -12 0 -25 -4 -28 -9z"/>
<path d="M7140 9006 c0 -2 7 -7 16 -10 8 -3 12 -2 9 4 -6 10 -25 14 -25 6z"/>
<path d="M7226 8991 c-3 -5 1 -12 10 -15 22 -8 25 -4 9 11 -8 7 -16 9 -19 4z"/>
<path d="M7395 8979 c33 -10 64 -17 70 -16 13 4 -89 37 -112 36 -10 0 9 -9 42
-20z"/>
<path d="M7280 8980 c-9 -6 -7 -11 10 -20 27 -14 38 -6 18 14 -9 8 -20 11 -28
6z"/>
<path d="M6230 8940 c-36 -22 -76 -45 -90 -51 -16 -7 -20 -13 -12 -16 7 -3 21
2 31 11 10 9 20 16 24 16 3 0 26 14 50 30 25 17 50 30 55 30 6 0 14 5 17 10
11 18 -9 10 -75 -30z"/>
<path d="M7055 8960 c3 -5 -9 -8 -30 -6 -20 1 -38 -1 -41 -6 -3 -4 5 -8 18 -9
13 0 40 -2 62 -4 l38 -4 -22 19 c-25 22 -35 26 -25 10z"/>
<path d="M6420 8951 c0 -6 5 -13 10 -16 6 -3 10 1 10 9 0 9 -4 16 -10 16 -5 0
-10 -4 -10 -9z"/>
<path d="M6450 8948 c0 -5 5 -8 10 -8 18 0 11 -20 -7 -21 -12 0 -13 -2 -5 -6
7 -3 19 0 27 7 8 7 47 15 87 20 73 7 62 10 -55 13 -31 1 -57 -1 -57 -5z"/>
<path d="M7486 8951 c5 -5 27 -14 49 -21 22 -7 43 -17 46 -23 4 -5 13 -7 20
-4 8 2 -10 16 -41 31 -54 26 -93 35 -74 17z"/>
<path d="M6310 8940 c20 -13 33 -13 25 0 -3 6 -14 10 -23 10 -15 0 -15 -2 -2
-10z"/>
<path d="M7110 8936 c0 -2 7 -7 16 -10 8 -3 12 -2 9 4 -6 10 -25 14 -25 6z"/>
<path d="M7155 8930 c-3 -6 1 -7 9 -4 18 7 21 14 7 14 -6 0 -13 -4 -16 -10z"/>
<path d="M6668 8923 c6 -2 18 -2 25 0 6 3 1 5 -13 5 -14 0 -19 -2 -12 -5z"/>
<path d="M6728 8923 c6 -2 18 -2 25 0 6 3 1 5 -13 5 -14 0 -19 -2 -12 -5z"/>
<path d="M6818 8923 c7 -3 16 -2 19 1 4 3 -2 6 -13 5 -11 0 -14 -3 -6 -6z"/>
<path d="M6858 8923 c7 -3 16 -2 19 1 4 3 -2 6 -13 5 -11 0 -14 -3 -6 -6z"/>
<path d="M6930 8918 c0 -4 19 -8 43 -8 51 0 202 -26 276 -47 30 -8 87 -16 127
-18 41 -1 80 -7 87 -13 10 -8 13 -6 14 9 1 14 -3 19 -11 16 -20 -8 -170 9
-246 27 -117 28 -290 48 -290 34z"/>
<path d="M6240 8911 c0 -5 9 -11 20 -14 13 -3 20 0 20 9 0 8 -9 14 -20 14 -11
0 -20 -4 -20 -9z"/>
<path d="M6405 8910 c3 -5 8 -10 11 -10 2 0 4 5 4 10 0 6 -5 10 -11 10 -5 0
-7 -4 -4 -10z"/>
<path d="M6435 8884 c-78 -39 -98 -54 -73 -54 9 0 18 4 20 9 4 12 103 61 123
61 8 0 15 5 15 10 0 15 -9 12 -85 -26z"/>
<path d="M6548 8913 c12 -2 30 -2 40 0 9 3 -1 5 -23 4 -22 0 -30 -2 -17 -4z"/>
<path d="M7188 8913 c7 -3 16 -2 19 1 4 3 -2 6 -13 5 -11 0 -14 -3 -6 -6z"/>
<path d="M7446 8905 c4 -8 11 -15 16 -15 6 0 5 6 -2 15 -7 8 -14 15 -16 15 -2
0 -1 -7 2 -15z"/>
<path d="M7500 8905 c0 -8 9 -15 20 -15 11 0 20 -4 20 -10 0 -5 7 -7 15 -3 23
8 12 29 -13 25 -12 -2 -22 2 -22 7 0 6 -4 11 -10 11 -5 0 -10 -7 -10 -15z"/>
<path d="M7395 8890 c-19 -8 -19 -9 3 -9 12 -1 22 4 22 9 0 6 -1 10 -2 9 -2 0
-12 -4 -23 -9z"/>
<path d="M7612 8884 c-12 -13 -10 -14 12 -8 15 3 26 2 26 -4 0 -5 9 -12 20
-15 27 -7 16 10 -18 27 -23 12 -29 12 -40 0z"/>
<path d="M7338 8883 c6 -2 18 -2 25 0 6 3 1 5 -13 5 -14 0 -19 -2 -12 -5z"/>
<path d="M6087 8855 c-12 -8 -14 -15 -8 -20 6 -3 11 -3 11 2 0 4 4 1 10 -7 13
-20 22 -7 13 18 -7 18 -10 19 -26 7z"/>
<path d="M7707 8834 c3 -7 9 -14 14 -14 14 0 10 17 -5 23 -10 4 -13 1 -9 -9z"/>
<path d="M7390 8826 c42 -17 58 -20 45 -7 -6 5 -26 12 -45 15 l-35 6 35 -14z"/>
<path d="M5998 8795 c-49 -36 -57 -49 -36 -61 6 -4 8 -3 5 3 -4 6 10 23 31 39
47 36 66 54 55 54 -4 0 -29 -16 -55 -35z"/>
<path d="M6320 8820 c-13 -8 -12 -10 3 -10 9 0 17 5 17 10 0 12 -1 12 -20 0z"/>
<path d="M7450 8812 c0 -5 16 -16 35 -25 19 -9 35 -12 35 -7 0 6 -8 13 -17 16
-10 3 -26 10 -35 15 -10 5 -18 5 -18 1z"/>
<path d="M7740 8811 c0 -5 7 -12 16 -15 14 -5 15 -4 4 9 -14 17 -20 19 -20 6z"/>
<path d="M6034 8779 c-15 -17 -16 -23 -5 -41 9 -14 9 -18 1 -13 -7 4 -16 1
-21 -6 -7 -9 -7 -5 -3 14 5 21 3 27 -10 27 -11 0 -16 -9 -16 -30 0 -16 4 -30
8 -30 5 0 23 -13 41 -29 l33 -30 36 21 c21 11 51 31 69 44 17 13 34 24 38 24
3 0 27 16 52 35 56 43 50 45 -17 5 -28 -16 -55 -30 -60 -30 -6 0 -10 -4 -10
-10 0 -5 -7 -10 -15 -10 -9 0 -12 6 -9 15 4 8 13 15 22 15 8 0 12 3 9 6 -4 4
-20 1 -37 -6 -33 -14 -56 -5 -28 11 17 10 14 39 -4 39 -6 0 -8 -7 -4 -15 3 -8
1 -15 -5 -15 -5 0 -12 7 -15 15 -8 21 -28 19 -50 -6z m50 -38 c-4 -3 -9 0 -11
7 -3 6 -9 12 -14 12 -6 0 -7 -5 -3 -12 4 -7 3 -8 -4 -4 -6 4 -9 13 -5 22 5 13
8 13 24 -2 11 -10 16 -20 13 -23z m46 -26 c7 -8 9 -15 6 -15 -4 0 -14 7 -22
15 -9 8 -11 15 -6 15 5 0 15 -7 22 -15z m-44 -29 c18 7 18 6 2 -11 -17 -18
-18 -18 -38 5 -25 29 -26 39 -1 16 11 -10 25 -14 37 -10z"/>
<path d="M6196 8791 c-4 -5 -2 -12 3 -15 5 -4 12 -2 15 3 4 5 2 12 -3 15 -5 4
-12 2 -15 -3z"/>
<path d="M7780 8783 c0 -7 5 -13 10 -13 6 0 10 -7 10 -15 0 -8 7 -15 16 -15
12 0 15 -7 12 -28 -2 -16 2 -34 9 -41 16 -15 7 -35 -13 -27 -7 3 -20 -1 -28
-9 -7 -8 -16 -12 -19 -9 -3 3 -8 1 -11 -5 -4 -6 2 -16 14 -23 11 -7 20 -18 20
-25 0 -20 -13 -14 -37 16 l-22 28 20 22 c20 21 12 30 -9 9 -8 -8 -14 -5 -23
15 -13 28 -24 34 -34 17 -3 -5 0 -10 8 -10 13 0 32 -28 25 -36 -2 -1 -19 10
-37 27 -23 20 -29 29 -17 29 23 0 20 17 -4 23 -11 3 -18 1 -15 -3 3 -5 0 -10
-6 -12 -6 -2 34 -48 89 -103 54 -55 103 -108 108 -118 10 -17 12 -17 42 0 18
10 32 21 32 26 0 4 6 7 13 7 8 0 24 9 37 20 l23 20 -23 33 c-55 74 -190 216
-190 200z m85 -111 c-8 -8 -25 10 -19 20 4 6 9 5 15 -3 4 -7 6 -15 4 -17z m35
-29 c0 -7 5 -13 10 -13 20 0 10 -31 -12 -39 -13 -5 -22 -11 -20 -15 4 -10 -25
-36 -32 -29 -10 10 -7 53 4 53 6 0 10 13 10 29 0 24 4 29 20 28 11 -1 20 -7
20 -14z m-84 -18 c-3 -8 -1 -15 4 -15 6 0 10 5 10 12 0 6 3 9 6 5 8 -8 -5 -47
-16 -47 -12 0 -23 37 -15 50 10 15 18 12 11 -5z m127 -92 c-29 -23 -49 -30
-38 -14 3 5 1 12 -5 16 -10 6 -14 -7 -11 -31 3 -23 -27 -22 -48 2 -11 13 -16
24 -10 24 7 0 18 -8 25 -17 12 -17 13 -16 14 5 0 12 7 25 15 28 8 4 15 12 15
20 0 8 7 14 15 14 8 0 15 5 15 12 0 6 9 0 21 -13 l20 -24 -28 -22z m-123 17
c0 -5 -4 -10 -10 -10 -5 0 -10 5 -10 10 0 6 5 10 10 10 6 0 10 -4 10 -10z"/>
<path d="M7880 8626 c0 -8 5 -18 10 -21 6 -3 10 1 10 9 0 8 -4 18 -10 21 -5 3
-10 -1 -10 -9z"/>
<path d="M7926 8561 c-4 -5 -2 -12 3 -15 5 -4 12 -2 15 3 4 5 2 12 -3 15 -5 4
-12 2 -15 -3z"/>
<path d="M7580 8769 c0 -5 5 -7 10 -4 6 3 10 8 10 11 0 2 -4 4 -10 4 -5 0 -10
-5 -10 -11z"/>
<path d="M7545 8760 c3 -5 8 -10 11 -10 2 0 4 5 4 10 0 6 -5 10 -11 10 -5 0
-7 -4 -4 -10z"/>
<path d="M7606 8731 c-3 -5 1 -14 9 -21 11 -9 14 -8 12 9 -1 22 -12 28 -21 12z"/>
<path d="M6920 8355 c-80 -22 -112 -39 -167 -89 -54 -49 -102 -130 -127 -215
-17 -57 -21 -276 -6 -336 4 -16 5 13 2 66 -5 110 6 230 19 189 6 -21 7 -19 8
15 1 31 -2 37 -10 25 -9 -12 -10 -11 -4 5 9 25 11 32 20 73 4 17 11 32 16 32
5 0 5 -10 0 -22 -5 -13 -8 -57 -9 -98 l0 -75 11 65 c8 44 12 56 15 38 3 -28
16 -36 26 -19 4 5 1 11 -5 13 -7 2 -5 9 5 17 14 12 15 10 12 -18 -2 -17 0 -34
5 -37 5 -3 8 32 7 78 -1 46 -3 66 -5 46 -4 -34 -6 -36 -24 -25 -20 12 -26 37
-9 37 6 0 9 10 9 23 -1 16 -2 18 -6 5 -4 -18 -23 -25 -23 -10 0 15 25 62 33
62 4 0 7 -8 7 -17 0 -14 3 -14 12 -5 10 10 10 15 -1 21 -10 7 -11 13 -2 27 6
11 11 13 11 7 0 -7 5 -13 10 -13 6 0 10 8 8 18 -2 11 3 17 14 16 9 -1 14 4 12
11 -4 9 5 12 28 10 37 -3 47 -31 11 -29 -13 0 -23 0 -23 -1 0 -1 7 -16 16 -34
11 -23 20 -29 27 -22 7 7 6 15 -2 25 -8 10 -9 16 -1 21 5 3 10 -2 10 -12 1
-17 1 -17 14 0 7 9 16 17 19 17 4 0 4 -8 1 -17 -5 -17 -5 -17 9 0 20 24 47 22
47 -4 0 -12 5 -19 13 -16 6 2 11 11 9 21 -2 9 2 16 8 16 6 0 8 -5 4 -11 -5 -9
1 -9 22 -3 16 5 72 9 124 9 86 0 101 -3 163 -32 38 -18 67 -28 65 -22 -2 6 -6
9 -10 7 -3 -2 -14 5 -24 14 -11 9 -31 20 -47 23 -28 7 -47 25 -27 25 6 0 27
-7 46 -15 20 -8 40 -12 45 -10 4 3 14 -3 21 -15 16 -24 43 -26 52 -3 8 21 -14
39 -104 87 -126 66 -275 90 -380 61z m230 -19 c62 -16 125 -46 98 -46 -11 0
-15 -5 -12 -15 8 -20 24 -19 -213 -17 -101 1 -163 6 -163 12 0 6 14 10 30 10
17 0 30 4 30 9 0 5 -16 5 -37 1 -49 -11 -76 2 -42 21 80 43 199 53 309 25z
m160 -67 c0 -5 -11 -9 -25 -9 -24 0 -32 10 -19 22 8 8 44 -3 44 -13z m42 -21
c33 -19 49 -36 39 -42 -4 -3 -19 3 -31 14 -13 11 -27 20 -32 20 -4 0 -8 5 -8
10 0 13 6 13 32 -2z m-652 -178 c0 -5 -5 -10 -11 -10 -5 0 -7 5 -4 10 3 6 8
10 11 10 2 0 4 -4 4 -10z"/>
<path d="M6940 8310 c0 -5 5 -10 10 -10 6 0 10 5 10 10 0 6 -4 10 -10 10 -5 0
-10 -4 -10 -10z"/>
<path d="M7108 8283 c12 -2 30 -2 40 0 9 3 -1 5 -23 4 -22 0 -30 -2 -17 -4z"/>
<path d="M7180 8280 c0 -5 9 -10 21 -10 11 0 17 5 14 10 -3 6 -13 10 -21 10
-8 0 -14 -4 -14 -10z"/>
<path d="M8070 8330 c-14 -11 -20 -20 -13 -20 6 0 18 7 27 15 16 16 41 21 31
6 -3 -5 -1 -12 5 -16 6 -3 17 -20 26 -37 13 -25 13 -32 3 -39 -8 -4 -10 -12
-5 -16 5 -4 11 -2 13 5 7 20 23 14 23 -9 0 -16 -4 -19 -17 -15 -10 4 -14 4
-10 0 14 -14 -39 -39 -88 -40 -78 -2 -85 -3 -85 -14 0 -5 18 -8 40 -6 22 2 42
0 45 -4 7 -11 -96 -74 -104 -64 -9 13 -31 16 -31 5 0 -6 5 -13 10 -16 17 -10
0 -26 -21 -20 -14 5 -17 2 -13 -8 3 -10 -9 -22 -40 -37 -25 -12 -46 -25 -46
-29 0 -4 -11 -14 -25 -21 -14 -7 -23 -15 -21 -18 5 -4 74 35 86 47 10 11 69
51 76 51 3 0 46 27 96 60 49 33 91 60 94 60 3 0 10 5 17 10 7 6 23 19 36 30
l24 20 -42 70 c-23 38 -47 70 -54 70 -7 0 -23 -9 -37 -20z"/>
<path d="M8014 8295 c-10 -8 -14 -14 -9 -15 15 0 40 18 34 24 -3 3 -14 -1 -25
-9z"/>
<path d="M7965 8261 c-3 -5 -1 -12 4 -15 5 -3 11 1 15 9 6 16 -9 21 -19 6z"/>
<path d="M8084 8258 c-4 -7 -3 -8 4 -4 7 4 12 2 12 -3 0 -6 5 -11 10 -11 15 0
12 17 -5 23 -8 4 -17 1 -21 -5z"/>
<path d="M7896 8215 c-11 -8 -15 -15 -10 -15 6 0 19 7 30 15 10 8 15 14 9 14
-5 0 -19 -6 -29 -14z"/>
<path d="M6920 8210 c0 -14 -33 -50 -46 -50 -3 0 -2 9 1 20 4 11 2 20 -4 20
-6 0 -12 -8 -12 -17 -4 -54 -37 -111 -58 -99 -5 3 -7 -4 -3 -16 3 -14 2 -19
-6 -14 -8 5 -12 -5 -12 -33 0 -23 -3 -41 -7 -41 -5 0 -7 35 -6 77 2 58 0 71
-7 50 -5 -16 -7 -127 -4 -247 3 -147 2 -220 -5 -225 -6 -3 -11 -1 -11 6 0 7
-8 5 -20 -6 -22 -20 -26 -35 -10 -35 6 0 10 7 10 15 0 8 5 15 10 15 7 0 7 -7
-1 -21 -9 -17 -8 -23 2 -30 10 -6 11 -9 2 -9 -16 0 -18 -86 -3 -95 6 -3 10 0
10 7 0 10 2 10 9 -1 11 -17 17 -6 26 43 6 28 5 37 -4 32 -6 -4 -11 -19 -11
-33 0 -29 -9 -27 -15 5 -2 11 5 29 16 41 11 12 19 35 19 58 l1 38 15 -40 c25
-65 27 -75 15 -75 -6 0 -11 -8 -11 -17 0 -15 2 -14 14 3 14 18 15 18 22 1 3
-10 2 -29 -4 -42 -11 -23 -7 -35 10 -35 5 0 6 9 3 20 -13 42 12 17 40 -40 17
-33 33 -60 37 -60 10 0 -2 31 -18 50 -24 29 -92 184 -109 249 -35 138 -29 268
17 370 11 24 44 68 73 97 36 36 50 57 44 66 -7 10 -9 10 -9 -2z m-143 -532
c-3 -8 -6 -5 -6 6 -1 11 2 17 5 13 3 -3 4 -12 1 -19z m-17 -73 c0 -8 -4 -15
-10 -15 -5 0 -10 7 -10 15 0 8 5 15 10 15 6 0 10 -7 10 -15z"/>
<path d="M7423 8207 c4 -10 7 -21 7 -23 0 -2 7 -4 15 -4 8 0 15 -5 15 -11 0
-6 -9 -9 -20 -6 -26 7 -26 -5 0 -20 16 -11 21 -10 28 3 7 12 11 13 17 4 8 -13
-9 -35 -28 -35 -12 0 -15 1 -56 35 -13 11 -29 20 -35 20 -12 0 -8 -3 50 -48
l41 -31 31 23 32 23 -33 28 c-72 62 -71 62 -64 42z"/>
<path d="M8125 8200 c-3 -5 -1 -10 4 -10 6 0 11 5 11 10 0 6 -2 10 -4 10 -3 0
-8 -4 -11 -10z"/>
<path d="M7818 8167 c-26 -17 -45 -33 -43 -35 6 -6 95 51 95 61 0 10 1 10 -52
-26z"/>
<path d="M6811 8165 c0 -5 4 -19 8 -29 7 -19 8 -19 13 2 4 12 2 20 -2 17 -5
-3 -11 1 -13 7 -3 7 -5 9 -6 3z"/>
<path d="M7810 8091 c0 -5 7 -12 16 -15 14 -5 15 -4 4 9 -14 17 -20 19 -20 6z"/>
<path d="M7679 8073 c-13 -15 -12 -15 9 -4 23 12 28 21 13 21 -5 0 -15 -7 -22
-17z"/>
<path d="M7770 8080 c19 -13 30 -13 30 0 0 6 -10 10 -22 10 -19 0 -20 -2 -8
-10z"/>
<path d="M7079 8061 c-66 -21 -109 -60 -136 -121 -19 -42 -26 -168 -12 -230
12 -53 68 -180 80 -180 4 0 -5 24 -20 54 -16 29 -34 82 -40 118 -14 80 -14
205 -1 213 6 3 10 15 10 25 0 22 67 93 80 85 4 -3 10 2 14 10 4 11 22 15 68
15 73 0 110 -8 102 -22 -4 -5 4 -8 17 -6 13 2 23 -2 22 -7 -1 -6 8 -12 20 -12
12 -1 23 -7 25 -13 2 -5 10 -10 18 -10 16 0 19 -16 4 -25 -5 -3 -10 -10 -10
-16 0 -5 5 -9 10 -9 6 0 10 7 10 15 0 8 5 15 10 15 6 0 10 -7 10 -17 0 -9 3
-14 6 -10 3 3 15 -3 27 -14 22 -20 67 -26 67 -9 0 6 20 20 45 32 25 12 45 26
45 30 0 4 6 8 14 8 8 0 16 7 20 15 8 22 3 20 -80 -35 -41 -27 -77 -50 -78 -50
-1 0 -24 20 -51 45 -94 85 -220 131 -296 106z"/>
<path d="M7619 8030 c-13 -10 -19 -19 -13 -20 6 0 21 9 34 20 30 26 10 26 -21
0z"/>
<path d="M7670 8040 c0 -5 5 -10 11 -10 5 0 7 5 4 10 -3 6 -8 10 -11 10 -2 0
-4 -4 -4 -10z"/>
<path d="M7060 8022 c0 -4 27 -9 60 -10 33 -1 60 2 60 7 0 5 -27 10 -60 10
-33 0 -60 -3 -60 -7z"/>
<path d="M8257 7968 c-32 -22 -61 -46 -63 -53 -3 -8 14 -67 37 -132 l43 -118
0 -185 c1 -216 -7 -262 -91 -565 -4 -13 -2 -17 4 -10 6 6 21 51 33 100 30 118
39 133 41 70 1 -28 4 -39 6 -25 3 14 9 30 15 35 8 7 9 5 5 -7 -4 -10 -2 -28 3
-40 7 -17 9 4 8 70 -1 85 -10 117 -21 75 -3 -10 -2 2 1 27 9 61 9 404 0 460
-4 25 -13 63 -19 85 -6 22 -12 52 -12 67 0 18 -4 25 -13 21 -8 -3 -14 2 -14
11 0 24 29 19 34 -6 3 -13 9 -41 14 -63 l10 -40 1 36 c1 27 6 38 20 42 11 3
20 13 19 23 0 11 2 33 6 49 6 23 5 26 -3 15 -10 -13 -12 -13 -21 0 -13 19 -13
30 0 30 6 0 10 7 10 16 0 9 -5 12 -12 8 -9 -5 -8 -2 1 10 13 16 15 15 28 -15
7 -17 13 -45 14 -63 0 -27 2 -28 10 -11 7 15 8 11 4 -17 -5 -35 8 -61 18 -36
3 8 6 6 6 -4 1 -10 -3 -18 -7 -18 -10 0 -9 -36 1 -46 4 -4 7 4 7 17 1 35 15 7
28 -56 15 -69 24 -194 13 -176 -8 12 -10 12 -14 0 -2 -8 -2 -4 0 9 4 28 -7 73
-17 67 -5 -3 -7 -17 -5 -31 1 -14 -4 -32 -12 -40 -8 -8 -10 -14 -5 -14 5 0 9
-14 10 -32 0 -17 7 -35 14 -39 10 -7 10 -9 1 -9 -7 0 -13 -7 -13 -15 0 -8 4
-15 9 -15 5 0 9 -14 9 -30 -1 -17 2 -33 6 -37 3 -3 6 4 5 18 0 13 4 40 9 59 9
33 10 31 12 -30 l3 -65 8 75 c10 104 -6 269 -37 371 -14 46 -28 94 -31 107 -3
12 -9 22 -14 22 -5 0 -8 3 -7 8 3 14 -14 61 -25 71 -8 6 -31 -4 -70 -31z m23
-16 c0 -5 -11 -14 -24 -20 -13 -6 -27 -21 -31 -33 -7 -21 -8 -21 -18 -4 -7 14
-7 20 1 23 7 2 22 12 34 22 25 21 38 25 38 12z m-17 -57 c-3 -9 -8 -14 -10
-11 -3 3 -2 9 2 15 9 16 15 13 8 -4z m37 -39 c0 -8 -4 -17 -8 -20 -4 -2 -8 4
-8 15 0 10 4 19 8 19 4 0 8 -6 8 -14z m128 -352 c0 -17 -3 -22 -8 -13 -5 6 -6
18 -3 26 8 19 11 16 11 -13z"/>
<path d="M7275 7979 c-4 -6 -5 -12 -2 -15 2 -3 7 2 10 11 7 17 1 20 -8 4z"/>
<path d="M7780 7980 c0 -5 5 -10 10 -10 6 0 10 5 10 10 0 6 -4 10 -10 10 -5 0
-10 -4 -10 -10z"/>
<path d="M7627 7953 c-4 -3 -7 -21 -7 -40 0 -26 4 -33 20 -33 11 0 20 -4 20
-10 0 -5 -7 -10 -15 -10 -8 0 -15 -6 -15 -12 0 -9 -3 -8 -9 1 -8 12 -13 8 -28
-17 -10 -18 -24 -32 -30 -32 -7 0 -13 -5 -13 -11 0 -12 1 -12 118 65 51 33 88
62 82 64 -6 2 -17 -1 -24 -7 -10 -9 -15 -8 -19 3 -4 10 -16 13 -36 11 -29 -4
-36 3 -32 28 1 9 -4 9 -12 0z m70 -57 c-2 -6 -12 -11 -22 -11 -10 0 -20 5 -22
11 -2 7 7 12 22 12 15 0 24 -5 22 -12z"/>
<path d="M6661 7874 c0 -11 3 -14 6 -6 3 7 2 16 -1 19 -3 4 -6 -2 -5 -13z"/>
<path d="M7490 7840 c0 -4 6 -12 13 -19 10 -11 10 -14 0 -18 -24 -9 -13 -20
13 -15 19 3 22 7 13 13 -11 6 -11 11 -1 21 9 9 12 9 12 0 0 -18 14 -15 26 6
10 15 6 17 -32 17 -24 0 -44 -2 -44 -5z"/>
<path d="M6655 7697 c3 -134 4 -140 39 -212 35 -74 83 -152 118 -189 10 -11
18 -23 18 -28 0 -17 112 -123 117 -110 2 6 9 9 15 6 6 -4 5 -10 -3 -15 -7 -4
-11 -9 -9 -11 3 -2 30 -22 60 -45 171 -129 391 -166 546 -93 35 17 64 35 64
39 0 4 -16 7 -35 7 -35 -1 -46 -10 -22 -20 6 -2 -6 -3 -27 -1 -30 3 -46 -2
-72 -21 -27 -21 -44 -25 -96 -25 -72 0 -144 15 -202 42 -22 11 -46 19 -53 19
-7 0 -13 5 -13 12 0 6 -3 9 -6 5 -4 -3 -22 5 -40 19 -27 21 -32 30 -24 44 7
13 6 20 -3 24 -6 2 -1 3 13 2 14 -2 38 1 54 5 23 7 32 5 42 -9 11 -14 13 -15
14 -1 0 8 -5 20 -11 26 -9 9 -7 11 7 9 11 -2 18 -10 18 -19 -1 -9 5 -18 13
-22 11 -3 13 -1 9 10 -6 17 12 16 59 -5 33 -14 194 -19 237 -7 22 6 26 4 22
-8 -5 -11 -2 -13 9 -9 9 3 13 12 11 19 -3 7 8 21 25 31 17 10 33 24 35 31 7
17 -9 17 -23 -1 -6 -8 -35 -24 -64 -37 -77 -34 -191 -32 -271 4 -32 15 -63 27
-68 27 -5 0 -15 6 -22 13 -8 6 -38 29 -67 51 -30 21 -71 59 -91 83 -21 24 -38
42 -38 39 0 -13 26 -51 43 -64 24 -18 22 -36 -2 -23 -15 9 -20 6 -26 -12 -4
-13 -8 -17 -12 -9 -2 6 -9 12 -14 12 -6 0 -8 -4 -5 -9 3 -4 -1 -17 -9 -27 -17
-23 -19 -34 -5 -34 6 0 10 6 10 14 0 8 5 18 11 22 6 3 10 -1 9 -12 -1 -11 -2
-23 -1 -27 2 -13 28 17 34 39 4 18 5 18 6 -2 0 -11 -4 -25 -11 -32 -9 -9 -9
-12 3 -13 7 -1 17 -1 22 0 4 0 7 -3 7 -9 0 -5 -9 -10 -20 -10 -11 0 -20 5 -20
10 0 7 -7 7 -21 -1 -17 -9 -23 -7 -35 10 -8 11 -21 27 -29 35 -8 8 -15 17 -15
20 0 3 -18 24 -40 48 -22 24 -40 48 -40 54 0 6 -7 17 -15 24 -15 13 -16 44 -2
66 4 7 0 14 -7 17 -10 4 -16 -2 -19 -16 -3 -21 -4 -21 -11 -2 -4 11 -12 29
-18 41 -6 14 -6 33 0 57 8 29 7 37 -2 37 -8 0 -12 -10 -11 -25 2 -14 0 -23 -4
-20 -9 5 -19 73 -31 210 -7 81 -8 77 -5 -48z m369 -432 c3 -8 1 -15 -4 -15 -6
0 -10 7 -10 15 0 8 2 15 4 15 2 0 6 -7 10 -15z m41 -34 c3 -5 2 -12 -3 -15 -5
-3 -9 1 -9 9 0 17 3 19 12 6z m-28 -31 c-1 -22 -17 -28 -17 -7 0 12 9 27 16
27 2 0 2 -9 1 -20z m68 6 c8 -7 11 -16 8 -19 -5 -6 -33 17 -33 27 0 10 11 7
25 -8z m-20 -26 c3 -5 -1 -10 -9 -10 -9 0 -16 5 -16 10 0 6 4 10 9 10 6 0 13
-4 16 -10z m-79 -45 c13 -13 13 -15 1 -15 -8 0 -17 7 -21 15 -3 8 -3 15 0 15
3 0 12 -7 20 -15z m514 -135 c-20 -13 -43 -13 -35 0 3 6 16 10 28 10 18 0 19
-2 7 -10z"/>
<path d="M7514 7765 c-5 -12 -10 -13 -19 -5 -16 13 -15 6 5 -57 7 -24 18 -43
24 -43 6 0 5 -4 -3 -9 -8 -5 -14 -23 -14 -40 1 -17 2 -45 2 -63 1 -17 4 -28 8
-24 4 4 6 32 6 64 -1 37 1 50 6 37 5 -11 9 -47 10 -79 0 -33 4 -62 7 -65 13
-12 -2 177 -15 193 -7 8 -10 20 -6 26 3 5 1 10 -4 10 -17 0 -13 40 4 46 17 7
20 24 5 24 -6 0 -13 -7 -16 -15z"/>
<path d="M6980 7744 c0 -8 5 -12 10 -9 6 3 10 10 10 16 0 5 -4 9 -10 9 -5 0
-10 -7 -10 -16z"/>
<path d="M7720 7723 c-14 -9 -26 -17 -27 -17 -1 -1 3 -24 9 -51 5 -28 9 -82 9
-121 -1 -63 -8 -101 -37 -194 -7 -23 -6 -24 9 -11 11 9 17 10 17 2 0 -6 5 -11
10 -11 6 0 10 9 10 20 0 11 -4 20 -10 20 -5 0 -10 5 -10 11 0 6 7 9 15 5 12
-4 14 0 9 19 -4 15 -2 25 5 25 6 0 11 5 11 11 0 5 -4 8 -8 5 -5 -3 -4 25 1 62
5 37 7 102 5 144 -4 62 -2 74 7 61 8 -11 11 -50 10 -112 -2 -61 0 -85 5 -66 9
36 12 24 15 -77 2 -43 -1 -80 -6 -84 -5 -3 -9 7 -9 21 0 15 -4 24 -10 20 -5
-3 -10 -30 -10 -58 1 -49 2 -51 16 -32 15 19 16 18 9 -15 -4 -19 -10 -37 -14
-40 -3 -3 -7 -16 -9 -30 -2 -14 -10 -32 -18 -40 -13 -13 -14 -11 -8 16 3 19 2
34 -5 38 -7 5 -9 -8 -6 -40 5 -53 -4 -78 -17 -48 -8 17 -8 17 -4 -3 2 -12 -2
-30 -10 -40 -13 -16 -14 -16 -10 10 3 15 0 27 -6 27 -5 0 -8 -6 -5 -14 7 -17
-28 -51 -42 -41 -7 4 -8 -1 -4 -12 5 -15 3 -16 -8 -5 -19 17 -28 15 -22 -7 8
-29 58 -22 92 15 38 41 85 128 105 193 21 72 21 255 0 372 -9 49 -19 89 -23
89 -4 0 -18 -8 -31 -17z m-80 -647 c0 -3 -4 -8 -10 -11 -5 -3 -10 -1 -10 4 0
6 5 11 10 11 6 0 10 -2 10 -4z"/>
<path d="M6977 7693 c-5 -29 0 -53 13 -53 4 0 8 18 8 40 1 45 -13 54 -21 13z"/>
<path d="M7440 7699 c0 -5 5 -7 10 -4 6 3 10 8 10 11 0 2 -4 4 -10 4 -5 0 -10
-5 -10 -11z"/>
<path d="M6631 7653 c0 -4 4 -17 9 -28 8 -19 9 -19 9 2 1 12 -3 25 -9 28 -5 3
-10 3 -9 -2z"/>
<path d="M7482 7640 c0 -14 2 -19 5 -12 2 6 2 18 0 25 -3 6 -5 1 -5 -13z"/>
<path d="M8395 7650 c-3 -5 -1 -10 4 -10 6 0 11 5 11 10 0 6 -2 10 -4 10 -3 0
-8 -4 -11 -10z"/>
<path d="M7441 7634 c0 -11 3 -14 6 -6 3 7 2 16 -1 19 -3 4 -6 -2 -5 -13z"/>
<path d="M6791 7574 c0 -11 3 -14 6 -6 3 7 2 16 -1 19 -3 4 -6 -2 -5 -13z"/>
<path d="M7037 7508 c-8 -30 109 -143 180 -175 66 -29 136 -38 178 -24 26 10
24 10 -17 5 -26 -3 -66 1 -90 8 l-43 12 33 4 c18 2 30 7 27 12 -3 5 -19 5 -36
0 -33 -10 -75 3 -114 34 -17 13 -18 17 -5 25 8 6 11 14 6 18 -5 4 -11 2 -13
-4 -6 -18 -33 -16 -33 2 0 8 -6 15 -13 15 -8 0 -20 12 -27 28 -8 15 -16 31
-19 36 -2 5 4 6 13 3 11 -5 16 -3 14 5 -7 20 -36 17 -41 -4z"/>
<path d="M8340 7506 c0 -17 14 -29 23 -20 8 8 -3 34 -14 34 -5 0 -9 -6 -9 -14z"/>
<path d="M7470 7430 c0 -5 5 -10 11 -10 5 0 7 5 4 10 -3 6 -8 10 -11 10 -2 0
-4 -4 -4 -10z"/>
<path d="M7513 7424 c-7 -7 -13 -19 -13 -26 0 -7 7 -2 16 10 18 26 16 37 -3
16z"/>
<path d="M7210 7370 c19 -13 30 -13 30 0 0 6 -10 10 -22 10 -19 0 -20 -2 -8
-10z"/>
<path d="M7268 7373 c7 -3 16 -2 19 1 4 3 -2 6 -13 5 -11 0 -14 -3 -6 -6z"/>
<path d="M7480 7371 c0 -5 -14 -14 -31 -20 -17 -6 -28 -15 -24 -21 4 -6 13 -7
23 -1 25 13 57 51 44 51 -7 0 -12 -4 -12 -9z"/>
<path d="M7400 7360 c-13 -8 -12 -10 3 -10 9 0 17 5 17 10 0 12 -1 12 -20 0z"/>
<path d="M6826 7345 c-3 -8 -1 -15 4 -15 6 0 10 7 10 15 0 8 -2 15 -4 15 -2 0
-6 -7 -10 -15z"/>
<path d="M7323 7348 c-2 -5 10 -8 26 -8 17 0 31 3 31 8 0 4 -12 7 -26 7 -14 0
-28 -3 -31 -7z"/>
<path d="M8396 7342 c-2 -4 -1 -14 5 -22 7 -12 9 -10 9 8 0 23 -5 28 -14 14z"/>
<path d="M6925 7329 c-10 -15 3 -25 16 -12 7 7 7 13 1 17 -6 3 -14 1 -17 -5z"/>
<path d="M8427 7333 c-4 -3 -7 -25 -7 -48 0 -28 -7 -50 -20 -65 -11 -13 -20
-18 -20 -12 0 7 -4 12 -10 12 -5 0 -8 -19 -6 -42 3 -50 -2 -70 -16 -62 -5 3
-4 -3 4 -15 7 -12 16 -21 20 -21 5 0 8 -5 8 -11 0 -5 -4 -8 -9 -5 -5 3 -12 -1
-15 -10 -3 -8 -2 -12 4 -9 13 8 12 -12 -4 -57 -7 -20 -10 -42 -6 -48 5 -7 10
-1 15 17 10 33 10 34 18 53 15 38 60 318 52 328 -1 1 -5 -1 -8 -5z m-30 -165
c-3 -8 -6 -5 -6 6 -1 11 2 17 5 13 3 -3 4 -12 1 -19z"/>
<path d="M7645 7290 c-4 -11 -19 -32 -33 -45 -24 -22 -25 -25 -7 -25 15 0 16
-3 7 -12 -7 -7 -12 -16 -12 -22 0 -5 6 -1 14 9 8 11 12 23 10 27 -10 15 8 31
18 17 7 -11 8 -9 4 4 -3 10 1 25 9 33 17 17 20 34 6 34 -5 0 -13 -9 -16 -20z"/>
<path d="M6880 7256 c0 -8 5 -18 10 -21 6 -3 10 3 10 14 0 12 -4 21 -10 21 -5
0 -10 -6 -10 -14z"/>
<path d="M7570 7160 c-8 -5 -11 -12 -7 -16 4 -4 15 0 24 9 18 18 8 23 -17 7z"/>
<path d="M7200 7130 c0 -5 5 -10 10 -10 6 0 10 5 10 10 0 6 -4 10 -10 10 -5 0
-10 -4 -10 -10z"/>
<path d="M7040 7109 c0 -5 5 -7 10 -4 6 3 10 8 10 11 0 2 -4 4 -10 4 -5 0 -10
-5 -10 -11z"/>
<path d="M7430 7020 c0 -5 9 -10 21 -10 11 0 17 5 14 10 -3 6 -13 10 -21 10
-8 0 -14 -4 -14 -10z"/>
<path d="M7408 6993 c6 -2 18 -2 25 0 6 3 1 5 -13 5 -14 0 -19 -2 -12 -5z"/>
<path d="M8281 6944 c0 -11 3 -14 6 -6 3 7 2 16 -1 19 -3 4 -6 -2 -5 -13z"/>
<path d="M8341 6904 c0 -11 3 -14 6 -6 3 7 2 16 -1 19 -3 4 -6 -2 -5 -13z"/>
<path d="M8138 6805 c-21 -47 -35 -93 -32 -103 4 -12 3 -14 -3 -4 -7 10 -14 1
-26 -30 -23 -58 -20 -73 3 -23 l19 40 0 -52 c1 -28 5 -54 10 -57 5 -4 7 3 4
14 -3 11 0 20 6 20 6 0 11 -18 11 -42 0 -40 0 -41 -20 -23 -11 10 -22 26 -25
36 -4 11 -11 19 -16 19 -14 0 1 -24 45 -70 43 -46 57 -47 71 -4 5 16 12 31 16
34 11 10 18 40 9 40 -6 0 -10 -5 -10 -11 0 -5 -4 -8 -8 -5 -4 2 -9 -7 -10 -21
-3 -33 -11 -45 -24 -37 -8 5 -9 1 -4 -12 6 -15 5 -17 -5 -6 -9 8 -10 15 -2 23
12 12 -3 89 -18 89 -5 0 -9 7 -9 16 0 8 4 12 10 9 5 -3 19 -1 30 5 17 9 20 7
26 -16 5 -19 9 -22 15 -12 6 10 9 10 9 1 0 -37 40 15 54 72 2 6 11 27 20 49
10 21 15 45 12 53 -3 8 -2 11 3 8 5 -3 12 -1 16 5 3 5 -1 10 -11 10 -11 0 -15
6 -11 19 2 10 1 25 -4 32 -6 10 -9 5 -10 -16 -3 -81 -8 -118 -19 -129 -9 -8
-10 -4 -5 17 7 27 1 32 -31 28 -7 -1 -14 6 -18 15 -4 10 -13 13 -26 9 -18 -6
-20 -3 -17 17 2 13 7 31 11 40 5 10 6 22 4 28 -2 6 -20 -28 -40 -75z m17 -34
c-3 -5 -1 -12 5 -16 6 -3 13 1 16 9 9 25 22 9 16 -20 -3 -19 -7 -22 -13 -12
-5 7 -9 8 -9 2 0 -6 3 -14 7 -18 14 -14 10 -33 -9 -45 -18 -11 -19 -10 -12 35
5 34 4 45 -5 40 -7 -5 -11 1 -11 13 0 12 5 21 11 21 5 0 8 -4 4 -9z m85 -37
c0 -8 -4 -12 -10 -9 -5 3 -10 13 -10 21 0 8 5 12 10 9 6 -3 10 -13 10 -21z
m10 -39 c0 -8 -4 -15 -10 -15 -5 0 -10 7 -10 15 0 8 5 15 10 15 6 0 10 -7 10
-15z m-35 -25 c3 -5 1 -10 -4 -10 -6 0 -11 5 -11 10 0 6 2 10 4 10 3 0 8 -4
11 -10z"/>
<path d="M8318 6855 c-3 -14 -2 -25 2 -25 4 0 10 11 12 25 3 14 2 25 -2 25 -4
0 -10 -11 -12 -25z"/>
<path d="M4625 5485 c-150 -88 -325 -205 -405 -270 -30 -24 -72 -57 -92 -72
-21 -16 -38 -32 -38 -38 0 -5 26 -25 58 -44 78 -46 218 -128 267 -156 22 -12
173 -101 335 -197 393 -233 342 -211 447 -194 260 43 766 172 905 231 l31 13
-224 132 c-123 73 -289 171 -369 218 -80 47 -203 120 -275 162 -411 243 -480
283 -494 287 -9 2 -74 -30 -146 -72z"/>
<path d="M7444 4720 c-23 -23 -594 -363 -609 -363 -5 0 -62 30 -126 67 l-116
66 -119 -46 c-151 -59 -456 -159 -658 -215 l-157 -43 48 -28 c376 -221 551
-324 663 -391 74 -44 151 -89 170 -100 19 -10 94 -55 167 -99 l132 -80 183
110 c173 104 380 229 793 478 100 60 193 115 208 123 22 12 25 17 14 29 -10
13 -523 454 -568 489 -9 8 -19 9 -25 3z"/>
<path d="M776 2749 c-126 -11 -217 -36 -300 -81 -93 -51 -130 -88 -172 -173
-61 -124 -68 -179 -68 -545 -1 -356 4 -401 56 -505 74 -149 219 -231 447 -254
57 -6 286 -11 510 -11 358 0 417 2 497 19 107 22 140 38 182 85 46 53 52 102
52 452 0 358 -1 367 -67 378 -21 3 -223 6 -448 6 -356 0 -414 -2 -433 -16 -21
-14 -22 -23 -22 -130 l0 -114 27 -11 c17 -6 136 -10 308 -9 154 1 286 1 293 1
10 -1 12 -35 10 -153 l-3 -152 -35 -20 c-34 -20 -50 -21 -420 -21 -428 0 -465
5 -534 66 -62 54 -69 92 -74 381 -2 170 0 276 8 313 14 68 61 132 115 160 38
19 63 20 634 23 416 2 599 6 608 14 10 8 13 44 11 152 l-3 141 -30 6 c-43 9
-1043 8 -1149 -2z"/>
<path d="M2755 2750 c-210 -23 -364 -110 -432 -244 -59 -116 -66 -163 -70
-514 -5 -367 2 -432 63 -559 60 -126 175 -199 370 -234 94 -17 154 -19 483
-19 492 0 593 15 732 106 113 74 169 181 190 360 17 141 7 673 -14 746 -63
221 -200 323 -480 358 -92 11 -735 11 -842 0z m855 -325 c40 -15 63 -31 86
-62 50 -65 56 -117 52 -426 -4 -300 -10 -332 -70 -382 -63 -53 -104 -58 -473
-63 -280 -3 -353 -1 -414 12 -180 38 -208 112 -198 531 5 230 11 265 54 323
64 86 99 91 543 89 335 -2 370 -4 420 -22z"/>
<path d="M5083 2746 c-88 -29 -116 -65 -255 -336 -52 -102 -133 -257 -180
-345 -47 -88 -112 -212 -145 -275 -167 -318 -267 -506 -284 -534 -10 -17 -19
-41 -19 -53 l0 -23 180 0 180 0 17 27 c10 15 50 90 88 167 l70 140 499 1 499
0 19 -35 c10 -19 46 -87 79 -150 34 -63 68 -123 77 -132 13 -16 36 -18 193
-18 98 0 180 4 183 8 2 4 -11 37 -31 72 -31 58 -81 151 -240 450 -25 47 -58
108 -73 135 -15 28 -65 120 -110 205 -45 85 -85 160 -90 165 -4 6 -40 73 -80
150 -198 381 -204 386 -415 392 -82 2 -133 -2 -162 -11z m193 -358 c18 -31 67
-123 109 -205 117 -224 191 -360 206 -379 5 -6 6 -14 2 -17 -10 -11 -713 -8
-713 2 0 5 17 42 39 83 21 40 93 181 161 313 67 132 127 246 133 253 16 20 30
9 63 -50z"/>
<path d="M6108 2749 c-16 -9 -18 -27 -18 -149 0 -127 2 -140 19 -150 13 -6
143 -10 355 -10 l336 0 0 -618 c0 -467 3 -621 12 -630 17 -17 309 -17 326 0 9
9 12 163 12 633 l0 620 335 -3 c223 -2 342 1 355 8 18 10 20 21 20 151 l0 139
-26 10 c-36 14 -1703 13 -1726 -1z"/>
<path d="M8444 2750 c-121 -10 -196 -33 -259 -80 -105 -78 -129 -150 -130
-385 0 -138 3 -180 18 -221 34 -98 99 -159 207 -196 62 -21 86 -22 520 -27
497 -7 501 -7 528 -66 18 -39 15 -180 -4 -216 -33 -64 -27 -64 -674 -67 -322
-1 -591 -4 -597 -7 -20 -7 -18 -278 1 -294 11 -9 180 -11 668 -9 l653 3 80 27
c90 31 144 70 179 131 72 124 76 460 6 596 -44 88 -153 151 -295 171 -38 5
-244 10 -456 10 -435 0 -448 2 -475 65 -19 46 -18 135 2 185 30 74 8 71 624
70 490 0 550 1 564 15 13 14 16 41 16 151 l0 134 -26 10 c-30 12 -1010 11
-1150 0z"/>
<path d="M10686 2748 c-65 -18 -116 -82 -202 -251 -42 -84 -145 -280 -229
-437 -133 -249 -351 -657 -429 -804 -14 -27 -26 -55 -26 -62 0 -11 35 -14 180
-14 175 0 180 1 194 22 8 13 48 88 90 168 l75 145 501 1 500 1 71 -136 c39
-75 82 -151 96 -168 l24 -33 180 0 c152 0 179 2 179 15 0 8 -24 59 -54 112
-52 95 -95 175 -161 298 -18 33 -82 152 -142 265 -61 113 -144 266 -185 340
-40 74 -100 187 -132 250 -96 187 -125 231 -180 265 -48 29 -53 30 -180 32
-72 1 -149 -3 -170 -9z m194 -341 c23 -46 203 -394 266 -513 30 -56 54 -104
54 -108 0 -3 -162 -6 -360 -6 -198 0 -360 2 -360 5 0 10 193 382 297 573 51
94 76 106 103 49z"/>
<path d="M11718 2749 c-16 -9 -18 -27 -18 -149 0 -132 1 -140 21 -151 15 -8
120 -10 353 -8 l331 3 0 -619 c0 -341 4 -626 8 -632 12 -19 310 -18 326 0 8
10 12 195 13 631 l3 618 341 -2 c284 -1 343 2 353 14 8 9 11 57 9 152 -3 138
-3 138 -28 145 -41 12 -1692 10 -1712 -2z"/>
<path d="M368 701 c-77 -16 -98 -59 -98 -203 0 -168 29 -198 189 -196 129 1
121 -6 121 114 l0 104 -75 0 c-73 0 -75 -1 -75 -25 0 -22 4 -25 40 -25 37 0
40 -2 40 -29 0 -16 3 -43 6 -60 l7 -31 -61 0 c-33 0 -72 4 -86 10 -35 13 -49
68 -45 169 4 74 7 85 29 103 21 17 36 19 120 16 l95 -3 0 25 c0 21 -6 26 -40
32 -49 9 -118 8 -167 -1z"/>
<path d="M1312 702 c-9 -3 -12 -42 -12 -138 0 -74 -3 -134 -8 -134 -4 0 -17
19 -30 43 -12 23 -50 83 -85 132 -58 83 -66 90 -99 93 l-37 3 2 -198 2 -198
28 -2 27 -2 0 145 c0 79 3 144 8 144 4 -1 49 -66 101 -145 85 -132 96 -145
122 -145 16 0 29 5 29 13 1 6 3 96 6 198 l6 186 -24 5 c-13 2 -29 3 -36 0z"/>
<path d="M2667 703 c-4 -3 -7 -96 -7 -205 l0 -198 125 0 125 0 0 29 0 28 -87
2 c-48 1 -90 4 -93 7 -3 3 -5 78 -5 167 0 97 -4 165 -10 169 -13 10 -40 10
-48 1z"/>
<path d="M2994 697 c-2 -7 -3 -98 -2 -202 l3 -190 30 0 30 0 -4 195 c-2 107
-5 197 -7 199 -11 11 -45 10 -50 -2z"/>
<path d="M4544 701 c-72 -18 -87 -51 -87 -202 0 -133 10 -160 68 -185 49 -20
162 -18 205 4 51 25 60 51 60 182 0 146 -13 179 -80 197 -51 13 -120 15 -166
4z m162 -65 c17 -13 19 -27 19 -130 0 -139 -5 -148 -94 -154 -54 -4 -62 -2
-85 21 -25 25 -26 32 -26 133 0 136 6 144 100 144 41 0 73 -5 86 -14z"/>
<path d="M5709 520 c-1 -104 -2 -196 -3 -202 -1 -8 11 -13 29 -13 l30 0 3 194
c3 203 1 210 -40 211 -17 0 -18 -16 -19 -190z"/>
<path d="M5988 703 l-148 -4 0 -24 c0 -24 3 -25 65 -25 l65 0 2 -172 3 -173
29 0 29 1 1 169 1 170 60 3 c33 2 64 7 68 12 12 11 -2 51 -16 48 -7 -1 -78 -4
-159 -5z"/>
<path d="M6625 702 c-3 -3 -5 -95 -5 -204 l0 -198 126 0 125 0 -3 28 -3 27
-92 3 -93 3 -2 172 c-3 170 -3 172 -25 173 -12 1 -25 -1 -28 -4z"/>
<path d="M8680 704 c-90 -17 -110 -55 -109 -202 1 -177 28 -206 187 -200 85 4
95 6 120 31 25 26 27 33 30 140 5 137 -7 191 -47 212 -30 15 -139 27 -181 19z
m138 -70 c21 -14 22 -23 22 -134 0 -141 -6 -150 -102 -150 -90 0 -98 13 -98
156 0 100 3 119 18 130 24 19 132 18 160 -2z"/>
<path d="M9283 703 c-10 -4 -13 -40 -13 -139 0 -74 -3 -134 -7 -134 -5 1 -47
61 -95 135 -85 132 -88 135 -123 135 l-35 0 2 -197 3 -198 25 0 25 0 5 140 5
140 42 -60 c24 -33 66 -96 96 -140 46 -69 57 -80 85 -83 l32 -3 0 199 c0 182
-2 200 -17 204 -10 3 -24 3 -30 1z"/>
<path d="M10401 700 c-78 -12 -107 -78 -98 -222 9 -144 43 -178 176 -178 84 0
101 6 101 34 0 20 -5 21 -85 21 -115 0 -119 5 -123 140 -4 101 -3 105 22 130
25 25 32 26 106 23 l80 -3 0 28 c0 23 -4 27 -27 28 -16 0 -46 2 -68 4 -22 1
-60 -1 -84 -5z"/>
<path d="M10670 504 l0 -205 33 3 32 3 0 85 0 85 89 3 c65 2 92 -1 98 -10 5
-7 7 -47 6 -88 l-3 -75 33 -3 32 -3 0 200 0 201 -34 0 -34 0 5 -60 c3 -32 3
-70 -1 -83 -5 -23 -10 -24 -84 -26 -111 -2 -114 -1 -112 73 3 108 3 106 -30
106 l-30 0 0 -206z"/>
<path d="M11378 702 c-16 -3 -18 -18 -18 -143 l0 -140 -92 138 c-90 133 -94
138 -131 141 l-37 3 2 -198 3 -198 28 0 29 0 0 138 c0 75 3 137 7 137 5 0 34
-39 66 -87 106 -160 134 -193 160 -193 l24 0 3 199 c3 213 3 213 -44 203z"/>
<path d="M11601 698 c-64 -24 -76 -54 -76 -186 1 -143 7 -167 48 -192 41 -25
167 -28 225 -4 58 23 67 48 67 188 -1 127 -8 154 -48 181 -31 20 -173 28 -216
13z m183 -67 c13 -11 16 -34 16 -125 0 -141 -3 -147 -96 -153 -106 -7 -109 -3
-109 147 0 110 2 123 20 137 25 18 144 14 169 -6z"/>
<path d="M11970 708 c-1 -8 -1 -384 0 -393 0 -6 48 -10 123 -10 l122 0 0 25
c0 25 -1 25 -92 28 l-93 3 -2 172 -3 172 -27 3 c-16 2 -28 2 -28 0z"/>
<path d="M12382 701 c-63 -11 -82 -35 -95 -124 -15 -103 1 -210 37 -245 21
-22 36 -26 103 -29 161 -9 193 24 193 198 0 122 -11 164 -49 184 -34 17 -133
26 -189 16z m149 -70 c23 -18 24 -26 24 -131 0 -105 -1 -113 -24 -131 -35 -29
-133 -27 -161 3 -18 19 -20 35 -20 134 0 105 1 114 22 128 33 23 129 21 159
-3z"/>
<path d="M12823 701 c-59 -10 -90 -42 -103 -108 -13 -63 -5 -180 16 -231 19
-47 63 -62 179 -62 68 0 97 4 100 13 2 6 5 56 7 109 3 110 7 106 -84 100 -54
-4 -58 -6 -58 -28 0 -21 4 -24 40 -24 l40 0 0 -60 0 -60 -64 0 c-101 0 -110
12 -114 148 -4 104 -3 111 20 132 21 20 31 21 123 18 l100 -3 0 25 c0 19 -6
26 -30 31 -39 9 -119 8 -172 0z"/>
<path d="M13100 700 c-13 -8 -4 -25 87 -177 40 -68 43 -77 43 -147 l0 -74 33
1 32 2 3 77 c3 76 5 81 72 198 l69 120 -34 0 c-32 0 -36 -4 -83 -87 -27 -48
-53 -88 -58 -90 -5 -1 -30 37 -56 86 -37 68 -54 90 -72 93 -14 3 -30 2 -36 -2z"/>
<path d="M682 503 l3 -198 133 -3 132 -3 0 31 0 30 -100 0 -100 0 0 60 0 60
90 0 c89 0 90 0 90 25 0 25 -1 25 -90 25 l-90 0 0 60 0 60 100 0 100 0 0 25 0
25 -135 0 -135 0 2 -197z"/>
<path d="M1483 503 l2 -197 130 -1 130 0 0 25 c0 25 -1 25 -97 28 l-98 3 0 59
0 60 85 0 c84 0 85 0 85 25 0 25 -1 25 -85 25 l-85 0 0 60 0 60 100 0 100 0 0
25 0 25 -134 0 -135 0 2 -197z"/>
<path d="M1845 503 l0 -197 30 0 30 0 3 77 3 78 55 -3 55 -3 33 -75 c30 -68
36 -75 65 -78 17 -2 31 0 31 5 0 4 -14 40 -31 79 l-31 71 25 25 c48 48 49 155
2 196 -24 20 -36 22 -148 22 l-122 0 0 -197z m224 134 c21 -26 24 -75 7 -102
-15 -23 -22 -25 -91 -25 l-75 0 0 70 0 70 74 0 c49 0 77 -4 85 -13z"/>
<path d="M2335 658 c-23 -57 -125 -348 -122 -349 1 -1 15 -3 30 -5 25 -3 30 2
52 52 l24 55 82 -3 82 -3 15 -45 c8 -25 20 -48 25 -52 15 -9 62 -4 60 8 -2 5
-28 77 -58 159 -31 83 -61 166 -68 185 -12 32 -16 35 -59 38 -45 3 -46 3 -63
-40z m94 -106 c17 -46 31 -85 31 -88 0 -2 -30 -4 -66 -4 -59 0 -65 2 -59 18 3
9 15 44 26 77 29 88 29 88 34 84 2 -3 18 -42 34 -87z"/>
<path d="M3153 675 c0 -25 0 -25 98 -25 55 0 99 -3 99 -7 0 -5 -45 -71 -100
-148 -69 -96 -100 -148 -100 -167 l0 -27 148 2 147 2 0 25 c0 25 -1 25 -102
28 -57 1 -103 6 -103 10 0 5 21 37 48 71 26 35 58 80 71 100 13 20 27 38 30
41 21 16 51 72 51 94 l0 26 -144 0 -143 0 0 -25z"/>
<path d="M3530 500 l0 -201 135 2 135 1 0 29 0 29 -105 0 -105 0 4 53 c3 28 5
55 6 60 0 4 38 7 83 7 46 0 86 3 89 6 3 3 4 14 1 24 -4 17 -16 20 -92 22 l-86
3 -2 40 c-3 75 -3 75 108 75 99 0 99 0 99 25 l0 25 -135 0 -135 0 0 -200z"/>
<path d="M3892 503 l3 -198 50 -2 c28 -2 83 0 124 3 64 5 79 10 103 34 28 28
28 30 28 154 0 72 -5 136 -11 150 -20 43 -65 56 -188 56 l-111 0 2 -197z m230
117 c15 -18 18 -41 18 -121 0 -128 -9 -139 -109 -139 l-70 0 -3 118 c-2 64 -1
130 1 146 l4 28 70 -5 c58 -4 74 -9 89 -27z"/>
<path d="M4892 503 l3 -198 30 0 30 0 3 78 3 78 55 -3 55 -3 33 -75 c30 -68
36 -75 65 -78 39 -4 39 3 1 78 -36 71 -36 73 -7 106 28 32 36 70 27 130 -12
76 -29 84 -176 84 l-124 0 2 -197z m220 130 c23 -20 24 -80 1 -105 -13 -14
-31 -18 -85 -18 l-68 0 0 70 0 70 67 0 c48 0 72 -5 85 -17z"/>
<path d="M5300 499 l0 -201 119 3 c102 3 124 7 148 25 24 18 28 29 31 78 3 49
0 59 -21 79 l-25 22 24 28 c38 45 25 143 -21 161 -9 3 -70 6 -136 6 l-119 0 0
-201z m225 127 c16 -23 13 -70 -5 -81 -4 -3 -39 -6 -78 -9 l-70 -3 -5 50 c-4
27 -4 54 -1 58 3 5 36 9 74 9 62 0 71 -3 85 -24z m3 -159 c21 -27 22 -65 3
-88 -17 -21 -28 -24 -93 -24 l-73 0 -3 53 c-2 30 1 59 7 65 12 15 146 10 159
-6z"/>
<path d="M6297 668 c-8 -18 -35 -94 -62 -168 -26 -74 -54 -147 -62 -163 -11
-23 -11 -28 0 -33 26 -10 57 12 79 56 l23 45 77 3 78 3 14 -33 c8 -18 17 -40
19 -49 5 -14 65 -33 75 -24 3 3 -100 294 -133 378 -5 12 -19 17 -51 17 -40 0
-45 -3 -57 -32z m87 -107 c14 -43 26 -83 26 -90 0 -7 -22 -11 -60 -11 -33 0
-60 3 -60 8 0 9 48 151 56 163 9 15 11 12 38 -70z"/>
<path d="M7137 511 c-37 -104 -67 -194 -67 -200 0 -6 11 -11 25 -11 21 0 29 9
50 55 l24 56 83 -3 82 -3 17 -44 c8 -24 22 -47 30 -50 20 -11 54 -8 52 4 -1 6
-33 94 -70 197 l-68 188 -45 0 -45 0 -68 -189z m146 39 c15 -41 27 -78 27 -82
0 -5 -27 -8 -60 -8 -41 0 -60 4 -60 12 0 27 53 169 59 161 4 -4 20 -42 34 -83z"/>
<path d="M7512 503 l3 -198 110 1 c176 0 200 25 200 206 0 93 -3 110 -21 135
-34 45 -59 53 -182 53 l-112 0 2 -197z m229 118 c16 -19 19 -40 19 -120 0 -63
-4 -103 -13 -115 -14 -19 -72 -35 -129 -36 l-37 0 -3 146 c-2 80 -1 148 2 151
3 3 36 3 74 1 57 -3 72 -8 87 -27z"/>
<path d="M7932 503 l3 -198 115 0 c99 0 119 3 142 20 41 30 48 57 47 168 -1
184 -23 207 -202 207 l-107 0 2 -197z m198 138 c38 -10 50 -59 43 -166 -3 -49
-10 -95 -17 -102 -6 -6 -45 -13 -86 -15 l-75 -3 -3 148 -3 147 58 -1 c32 -1
69 -4 83 -8z"/>
<path d="M9560 675 c0 -24 2 -25 65 -25 l65 0 0 -176 0 -175 33 3 c37 3 34
-15 36 201 l1 147 60 0 c57 0 60 1 60 25 l0 25 -160 0 -160 0 0 -25z"/>
<path d="M9956 508 c2 -106 3 -197 4 -201 0 -8 193 -7 238 1 15 3 22 11 22 28
0 24 -1 24 -100 24 l-101 0 3 58 3 57 88 3 c85 3 87 3 87 27 0 24 -2 24 -87
27 l-88 3 -3 58 -3 57 101 0 100 0 0 25 0 25 -134 0 -133 0 3 -192z"/>
<path d="M8325 489 c-2 -3 -1 -15 2 -27 5 -20 12 -22 79 -22 l74 0 0 28 0 27
-76 0 c-42 0 -77 -3 -79 -6z"/>
</g>
</svg>
